<svg id="Layer_1" xmlns="http://www.w3.org/2000/svg" width="25" height="14" viewBox="0 0 33.749 16.537"><g fill="#e3670f"><path d="M2.015 4.135l.237-1.183h26.763l-.229 1.183H2.015zm-.029-1.772L0 11.813s.447 0 1.221.011l1.271-6.059c.069-.32.338-.508.606-.426.267.069.426.392.367.71l-1.222 5.798 1.638.038 1.26-5.99c.07-.32.337-.509.607-.428.268.073.426.392.357.71l-1.211 5.739c.516.027 1.071.051 1.647.086l1.252-5.978c.068-.319.327-.507.603-.425.26.071.427.402.359.708l-1.212 5.741c.526.034 1.072.072 1.629.107l1.261-6.002c.069-.32.337-.509.604-.423.269.08.427.399.369.708l-1.213 5.786c.537.036 1.073.085 1.618.131l1.27-6.071c.072-.32.337-.51.606-.426.259.082.427.402.357.723l-1.229 5.867 1.617.181 1.299-6.214c.07-.309.337-.51.606-.425.258.081.425.4.357.719l-1.271 6.036a65.23 65.23 0 0 1 1.596.224l1.352-6.411c.069-.32.337-.523.605-.439.267.084.427.401.367.721l-1.32 6.287c.545.093 1.072.185 1.586.294l1.41-6.736c.069-.315.336-.507.606-.436.268.082.428.402.357.722l-1.398 6.65c.545.131 1.07.259 1.566.4l1.52-7.205c.06-.319.326-.521.594-.437.27.082.428.401.369.72l-1.518 7.219a12.3 12.3 0 0 1 1.518.591l1.676-7.962c.07-.319.339-.508.607-.427.266.071.426.389.367.709l-1.72 8.177c.558.339.976.718 1.232 1.132L29.78 2.363H1.986z"/><polygon points="27.297,16.535 33.749,16.535 33.749,2.363 30.274,2.363"/><polygon points="27.055,3.323 26.973,3.767 28.235,3.767 28.317,3.323"/><polygon points="24.375,3.323 24.295,3.767 25.667,3.767 25.749,3.323"/><polygon points="21.696,3.323 21.612,3.767 23.095,3.767 23.178,3.323"/><polygon points="19.016,3.323 18.934,3.767 20.526,3.767 20.608,3.323"/><polygon points="16.336,3.323 16.252,3.767 17.958,3.767 18.041,3.323"/><polygon points="13.656,3.323 13.573,3.767 15.387,3.767 15.471,3.323"/><polygon points="10.975,3.323 10.893,3.767 12.817,3.767 12.898,3.323"/><polygon points="8.296,3.323 8.213,3.767 10.248,3.767 10.331,3.323"/><polygon points="5.616,3.323 5.535,3.767 7.678,3.767 7.761,3.323"/><polygon points="2.938,3.323 2.852,3.767 5.109,3.767 5.192,3.323"/><rect x="1.986" width="1.985" height="2.016"/><rect x="27.792" width="2.172" height="2.016"/><rect x="30.295" width="3.453" height="2.016"/></g></svg>