<svg id="Layer_1" xmlns="http://www.w3.org/2000/svg" width="16" height="17" viewBox="0 0 27.522 29.518"><g fill="#E66A25"><path d="M13.044 25.979h1.688v2.438h-1.688v-2.438zm3.631 0h1.688v2.438h-1.688v-2.438zm3.629 0h1.688v2.438h-1.688v-2.438zm3.631 0h1.687v2.438h-1.687v-2.438zm1.686-.261h-1.687v-2.174h1.687v2.174zm-3.63 0h-1.688v-2.174h1.688v2.174zm-3.629 0h-1.688v-2.174h1.688v2.174zm-3.63 0h-1.688v-2.174h1.688v2.174zm-3.59 3.8h16.381v-7.074H11.142v7.074z"/><polygon points="22.78,14.414 26.203,14.414 26.027,9.848 25.968,4.396 25.964,4.396 25.776,0.485 26.198,0.485 26.112,0 22.87,0 22.784,0.485 23.207,0.485 23.021,4.396 23.015,4.396 23.014,4.531 22.956,9.848"/><path d="M3.317 29.363l-.094.154H0s2.785-3.051 4.236-8.825h3.489c-1.733 5.758-4.376 8.619-4.408 8.671M4.175 19.013h.437c.3-1.538.485-3.133.485-4.729l-.255-.447h4.263a30.129 30.129 0 0 1-.281 2.18h-.428l-.4 2.023h.432a40.458 40.458 0 0 1-.623 2.395H3.857l.318-1.422z"/><path d="M8.642 16.315h.436c.267-1.547.428-3.137.436-4.729l-.234-.444h8.929l-.224.444c.057.41.338 2.397.748 4.729h.432l.261 1.424H8.358l.284-1.424z"/><path d="M3.573 29.518s3.55-4.311 5.16-11.479H19.05c.297 1.552.641 1.593 1.004 2.863h1.406V14.67h6.063v7.517H10.886v7.331H3.573z"/></g></svg>