<svg id="Layer_1" xmlns="http://www.w3.org/2000/svg" width="20.1" height="20.192" viewBox="0 0 25.1 26.192"><g fill="#808285"><path d="M19.58 14.716h-2.296V13.57h2.296v1.146zm-6.228 0h-2.295V13.57h2.295v1.146zm-7.615 0H3.443V13.57h2.294v1.146zM0 12.421v10.33h5.737v-5.74h13.624v5.74h5.737v-10.33H0z"/><path d="M8.113 9.922h-.642v.583h.643c.471 0 .872.334.976.771.022.079.035.16.035.252v.894h.472V11.39a1.47 1.47 0 0 0-1.484-1.468m0-.623h-.642v.322h.643c.965 0 1.744.792 1.744 1.768v1.032h.473v-.894a2.223 2.223 0 0 0-2.218-2.228m0 .623h-.642v.583h.643c.471 0 .872.334.976.771.022.079.035.16.035.252v.894h.472V11.39a1.47 1.47 0 0 0-1.484-1.468"/><polygon points="8.033,1.147 8.033,12.421 6.85,12.421 6.85,1.147 6.277,1.147 6.277,12.421 5.737,12.421 5.737,1.147 6.082,0 7.69,0"/><path d="M13.483 20.17h1.778v-.859h-2.639v5.737h-.574v-5.737h-1.721a2.098 2.098 0 0 0-2.099 2.098v1.722c0 1.054-1.112 1.918-2.492 1.918H1.148v-.402h4.589c1.158 0 2.1-.68 2.1-1.516v-1.722a2.498 2.498 0 0 1 2.491-2.502h4.934v-.46h-4.934a3.154 3.154 0 0 0-3.154 3.156v1.722c0 .4-.609.859-1.437.859H1.148v-.285H0v2.294h1.148v-.284h4.589c1.769 0 3.157-1.137 3.157-2.584v-1.722c0-.79.644-1.433 1.434-1.433h1.436v4.878h-.287v1.145h2.295v-1.145h-.288V20.17z"/><path d="M23.951 23.898v.285h-4.002c-.826 0-1.435-.459-1.435-.859v-1.722a3.155 3.155 0 0 0-3.154-3.156h-.497v.46h.497a2.497 2.497 0 0 1 2.489 2.502v1.722c0 .836.939 1.516 2.1 1.516h4.002v.399h-4.002c-1.375 0-2.489-.861-2.489-1.915v-1.722a2.1 2.1 0 0 0-2.1-2.098h-.497v.859h.497c.792 0 1.434.643 1.434 1.433v1.722c0 1.447 1.388 2.584 3.155 2.584h4.002v.284H25.1v-2.294h-1.149z"/></g></svg>