<svg id="Layer_1" xmlns="http://www.w3.org/2000/svg" width="12.256" height="26.166" viewBox="0 0 14.256 30.166"><g fill="#e3670f"><path d="M8.539 7.271l-.857-.736.857-.736v1.472zm0 3.767l-.857-.739.857-.735v1.474zM5.916 8.787H8.32l-1.203 1.03-1.201-1.03zm-.219 2.251V9.563l.857.735-.857.74zm0-5.239l.857.736-.857.736V5.799zm.428-1.854l1.307.69h-1.57l.263-.69zm.949-2.485l.377.93-.912.471.535-1.401zm1.258 6.598H5.906l1.211-1.041 1.215 1.041zM6.318 5.369h1.598l-.799.683-.799-.683zm1.871-1.16l-1.316-.697.854-.442.462 1.139zM4.965 8.058H2.357L4.011 5.37h.953v2.688zM9.27 5.369h.969l1.654 2.688H9.27V5.369zm3.07 3.418v1.289h.816V8.544h-.033l-2.479-3.908H9.152L7.271 0l-.427.004L5.08 4.636H3.602L1.1 8.587v1.489h.814V8.787h3.051v3.025h.951l1.201-1.031 1.203 1.031h.95V8.787h3.07zM9.279 15.232v-2.689h2.066L13 15.232H9.279zm.106 4.723l.348 1.81-1.84-.999 1.492-.811zm1.013 5.263L7.91 23.911l2.029-1.07.459 2.377zm.774 4.004l-3.195-1.523 2.658-1.268.537 2.791zm-4.043-1.931h-.006l-2.955-1.409 2.955-1.558.006-.004.002.004 2.953 1.558-2.953 1.409h-.002zm-4.047 1.931l.539-2.791 2.656 1.268-3.195 1.523zm1.232-6.381l2.027 1.07-2.486 1.307.459-2.377zm.557-2.886l1.49.811-1.838.999.348-1.81zm-3.617-4.723l1.656-2.689h2.064v2.689h-3.72zm4.322 1.081l1.01.934-1.449 1.343.439-2.277zm.129-2.985l.861.737-.861.736v-1.473zm1.369-.785H8.34l-1.211 1.041-1.215-1.041h1.16zm1.477 2.259l-.861-.736.861-.737v1.473zm-2.231.43l.799-.684.004.002.006-.002.797.684H6.32zm.754.735h.11l.793-.007-.846.785-.002.003-.006-.003-.846-.785.797.007zm2.213 6.392l-2.158 1.136-2.162-1.136 2.158-1.175h.006l2.156 1.175zM7.129 20.35l-.004-.003-1.773-.962 1.771-1.636.006-.003.002.003 1.771 1.636-1.771.962-.002.003zm1.99-1.761l-1.453-1.343 1.014-.934.439 2.277zm5.127-2.84l-2.494-3.937H2.5L.008 15.749 0 15.763v1.485h.813V15.96h4.084L2.158 30.166l3.629-1.425v-.035l1.336-.601.006-.003.002.003 1.338.601v.035l3.631 1.425L9.357 15.96h4.084v1.288h.814v-1.485l-.009-.014z"/></g></svg>