<svg id="Layer_1" xmlns="http://www.w3.org/2000/svg" width="20.446" height="17.61" viewBox="0 0 20.446 17.61"><g><path fill="#e3670f" d="M17.54 5.622h-3.643l1.322-4.27h3.657l-.706 2.252-.491 1.567-.139.451zm-1.675 5.409h-3.659l1.398-4.509h3.662l-1.401 4.509zm-1.613 5.193H10.61l1.319-4.294h3.655l-1.332 4.294zm-8.257 0l1.322-4.294h3.842l-1.318 4.294H5.995zm-4.428 0l1.336-4.294h.57l-.98 3.174c-.063.236.045.434.246.434.211 0 .459-.197.52-.434l.984-3.174H6.55l-1.322 4.294H1.567zm3.016-9.702h.566l-1.398 4.509h-.566l1.398-4.509zm1.611-5.169H9.84l-1.322 4.27H6.212l.967-3.136c.078-.25-.029-.469-.246-.469-.199 0-.447.219-.521.469L5.44 5.622h-.58l1.334-4.269zm.633 9.678H4.521l1.396-4.509h2.306l-1.396 4.509zm2.166-4.509h3.84l-1.395 4.509H7.595l1.398-4.509zm5.457-5.169l-1.322 4.27H9.287l1.323-4.27h3.84zM5.457 0L0 17.574h14.987l2.691-8.673v8.709h1.538V3.966L20.446 0H5.457z"/></g></svg>