<svg id="Layer_1" xmlns="http://www.w3.org/2000/svg" width="28.432" height="20" viewBox="0 0 38.432 21.575"><g><path fill="none" stroke="#000" stroke-width=".5" stroke-linecap="round" stroke-linejoin="round" stroke-miterlimit="10" d="M22.657.876c1.502 2.206 2.732 7.252 5.543 7.302M22.657.876c1.502 2.206 7.117 7.252 9.926 7.302M19.651.876h3.006c1.502 2.206 11.51 7.252 14.318 7.302"/><path fill="#FFF" d="M21.596 20.639h-3.039V14.53h3.039v6.109zM5.721 14.854h2.854v2.117H5.721v-2.117zm4.471 0h2.854v2.117h-2.854v-2.117zm4.293 0h2.854v2.117h-2.854v-2.117zm-8.764-3.792h2.854v2.119H5.721v-2.119zm4.471 0h2.854v2.119h-2.854v-2.119zm8.549 0h2.854v2.119h-2.854v-2.119zm-4.256 0h2.854v2.119h-2.854v-2.119zm9.197 7.827V6.388h-22v12.574H.25v1.677h24.864v-1.677l-1.432-.073z"/><path fill="none" stroke="#000" stroke-width=".5" stroke-linecap="round" stroke-linejoin="round" stroke-miterlimit="10" d="M21.596 20.639h-3.039V14.53h3.039v6.109zM5.721 14.854h2.854v2.117H5.721v-2.117zm4.471 0h2.854v2.117h-2.854v-2.117zm4.293 0h2.854v2.117h-2.854v-2.117zm-8.764-3.792h2.854v2.119H5.721v-2.119zm4.471 0h2.854v2.119h-2.854v-2.119zm8.549 0h2.854v2.119h-2.854v-2.119zm-4.256 0h2.854v2.119h-2.854v-2.119zm9.197 7.827V6.388h-22v12.574H.25v1.677h24.864v-1.677l-1.432-.073z"/><polygon fill="#000" points="32.545,16.625 33.758,14.511 31.932,14.511 31.028,17.329 32.04,17.329 31.065,19.938 33.559,16.625"/><line fill="none" stroke="#000" stroke-width=".5" stroke-linecap="round" stroke-linejoin="round" stroke-miterlimit="10" x1="21.288" y1="6.644" x2="21.288" y2=".25"/><path fill="#000" d="M32.391 7.871c-.463 0-.846.243-1.021.614a.85.85 0 0 0-.313 1.326.834.834 0 0 0-.199.547c0 .202.07.396.199.549a.83.83 0 0 0-.199.544c0 .212.074.403.199.549a.838.838 0 0 0-.199.547c0 .069.008.133.021.197h-.57a.855.855 0 0 0-.293-.835.842.842 0 0 0 .105-.494.85.85 0 0 0-.305-.583.863.863 0 0 0 .107-.497.855.855 0 0 0-.307-.578.835.835 0 0 0 .104-.498.85.85 0 0 0-.652-.755 1.099 1.099 0 0 0-.908-.447c-.346 0-.678.146-.891.397a1.019 1.019 0 0 0-.217.404.811.811 0 0 0-.373.775.855.855 0 0 0 .305.578.841.841 0 0 0-.105.498.846.846 0 0 0 .307.58.803.803 0 0 0-.105.498.86.86 0 0 0 .305.582.796.796 0 0 0-.109.374h-.115a.798.798 0 0 0-.807.788v.984c0 .289.205.526.482.588a.602.602 0 0 0-.482.587v.588c0 .287.205.525.482.587a.602.602 0 0 0-.482.584v.59c0 .285.205.526.482.585a.604.604 0 0 0-.482.587v.985c0 .436.361.787.807.787h.156l.422.412a.618.618 0 0 0 .436.179h8.436a.614.614 0 0 0 .436-.179l.424-.412h.154a.8.8 0 0 0 .809-.787v-.985a.606.606 0 0 0-.482-.587.605.605 0 0 0 .482-.585v-.59a.604.604 0 0 0-.482-.584.608.608 0 0 0 .482-.587v-.588a.604.604 0 0 0-.482-.587.607.607 0 0 0 .482-.588v-.984a.799.799 0 0 0-.809-.788h-.115a.785.785 0 0 0-.109-.374.859.859 0 0 0 .202-1.08.858.858 0 0 0 .2-1.078.843.843 0 0 0 .305-.578.811.811 0 0 0-.373-.775 1.118 1.118 0 0 0-.218-.404 1.178 1.178 0 0 0-.891-.397c-.381 0-.709.168-.908.447a.85.85 0 0 0-.656.755c-.02.18.021.353.105.498a.85.85 0 0 0-.2 1.075.854.854 0 0 0-.305.583.81.81 0 0 0 .105.494.859.859 0 0 0-.293.835h-.572a.799.799 0 0 0 .021-.197.84.84 0 0 0-.199-.547.838.838 0 0 0 .199-.549.848.848 0 0 0-.199-.547.836.836 0 0 0 .199-.546.834.834 0 0 0-.199-.547.85.85 0 0 0 .199-.55.837.837 0 0 0-.51-.776c-.175-.371-.558-.614-1.023-.614m.512 4.975v.496h2.441l.082-.458 1.008.177-.053.281h1.242c.107 0 .193.086.193.19v.984h-.605v1.175h.605v.588h-.605v1.171h.605v.59h-.605v1.172h.605v.985a.19.19 0 0 1-.193.189h-.412l-.602.586h-8.436l-.602-.586h-.412a.19.19 0 0 1-.191-.189v-.985h.604V18.04h-.604v-.59h.604v-1.171h-.604v-.588h.604v-1.175h-.604v-.984c0-.104.086-.19.191-.19h1.242l-.051-.281 1.008-.177.082.458h2.438v-.496h1.025zm-3.442-.533c.287 0 .354.44.039.494l-1.309.23c-.02.003-.037.006-.053.006-.291 0-.354-.439-.037-.497l1.307-.229c.018-.004.036-.004.053-.004m5.862 0c.018 0 .035 0 .055.004l1.307.229c.314.058.252.497-.037.497-.016 0-.033-.003-.053-.006l-1.309-.23c-.317-.053-.25-.494.037-.494m-2.268-.014c.34 0 .34.498 0 .498h-1.326c-.338 0-.338-.498 0-.498h1.326zm-3.896-.493l.09.491-1.004.176-.094-.49 1.008-.177zm6.468 0l1.004.177-.09.49-1.004-.176.09-.491zm-2.724.441H31.88v-.497h1.023v.497zm-3.641-1.012c.289 0 .352.439.037.495l-1.309.229c-.018.002-.035.004-.053.004-.289 0-.352-.438-.037-.492l1.309-.229a.267.267 0 0 1 .053-.007m6.26 0c.016 0 .035.003.055.007l1.307.229c.314.055.25.492-.037.492-.016 0-.033-.002-.055-.004l-1.307-.229c-.313-.055-.25-.495.037-.495m-2.467-.031c.34 0 .34.497 0 .497h-1.326c-.338 0-.338-.497 0-.497h1.326zm-4.097-.475l.094.49-1.01.177-.088-.491 1.004-.176zm6.869 0l1.006.176-.09.491-1.008-.177.092-.49zm-2.924.425H31.88v-.497h1.023v.497zm-3.838-.994c.287 0 .35.438.035.495l-1.309.229c-.018.002-.035.002-.051.002-.291 0-.352-.438-.039-.494l1.309-.229c.018-.003.037-.003.055-.003m6.656 0c.018 0 .037 0 .053.003l1.311.229c.313.057.25.494-.039.494-.018 0-.035 0-.053-.002l-1.307-.229c-.314-.056-.254-.495.035-.495m-2.666-.053c.34 0 .34.5 0 .5h-1.326c-.338 0-.338-.5 0-.5h1.326zm-4.295-.456l.088.488-1.004.177-.092-.488 1.008-.177zm7.266 0l1.006.177-.09.488-1.006-.177.09-.488zm-3.123.407H31.88v-.497h1.023v.497zm-4.039-.977c.287 0 .352.439.037.494l-1.309.229a.204.204 0 0 1-.053.007c-.287 0-.352-.44-.037-.498l1.309-.229c.018-.003.035-.003.053-.003m7.056 0c.02 0 .037 0 .055.004l1.307.229c.314.058.25.498-.035.498a.218.218 0 0 1-.055-.007l-1.307-.229c-.316-.055-.25-.495.035-.495m-2.865-.065c.34 0 .34.496 0 .496h-1.326c-.338 0-.338-.496 0-.496h1.326zm-4.894-.358c.221 0 .438.123.49.406l-1.008.177c-.066-.368.229-.583.518-.583m8.466 0c.287 0 .58.215.514.583l-1.006-.177a.478.478 0 0 1 .492-.406m-4.236-.19c.258 0 .512.167.512.497H31.88c-.001-.33.255-.497.511-.497"/></g></svg>