<svg id="Layer_1" xmlns="http://www.w3.org/2000/svg" width="16" height="25" viewBox="0 0 24.671 34.395"><g fill="#000"><path d="M13.006 9.681a1.138 1.138 0 0 0 .131 1.608 1.162 1.162 0 0 0 1.625-.128 1.14 1.14 0 0 0-.135-1.615 1.16 1.16 0 0 0-1.621.135M12.838 8.818l.176.319c.119-.066.249-.128.375-.168.175-.057.366-.095.553-.095l-.057-.404c-.068-.434.094-.585-.077-1.01L10.965.714c-.178-.421-.258-.791-.527-.701-.236.082-.117.434.006.876.431 1.61 1.98 7.157 2.394 7.929M13.209 11.785a2.065 2.065 0 0 1-.336-.238 1.602 1.602 0 0 1-.359-.426l-.324.25c-.344.278-.555.215-.841.576l-4.463 5.81c-.278.369-.563.618-.347.808.187.163.438-.118.761-.442 1.188-1.177 5.251-5.281 5.721-6.025l.188-.313zM23.902 12.208c-1.62-.437-7.23-1.875-8.112-1.907l-.366-.006a2.274 2.274 0 0 1-.041.407 1.687 1.687 0 0 1-.191.523l.378.151c.412.159.465.375.918.438l7.307.932c.455.058.817.174.873-.106.051-.244-.318-.316-.766-.432M15.038 32.731h-.022l-.604-20.789h-1.257l-.602 20.789h-.025a.84.84 0 0 0-.84.831v.832h4.191v-.832a.84.84 0 0 0-.841-.831M3.913 19.616a.68.68 0 0 0 .078.962.693.693 0 0 0 .971-.073.684.684 0 0 0-.08-.969.694.694 0 0 0-.969.08M3.811 19.103l.105.191c.072-.039.148-.078.226-.102.103-.034.218-.058.33-.058l-.034-.242c-.041-.259.055-.348-.045-.601l-1.701-4.036c-.106-.253-.154-.473-.316-.416-.141.046-.07.258.004.521.256.963 1.184 4.281 1.431 4.743M4.034 20.875a1.124 1.124 0 0 1-.201-.142.94.94 0 0 1-.215-.254l-.193.148c-.205.166-.332.129-.503.344L.253 24.448c-.166.217-.336.368-.207.482.11.096.264-.07.455-.266.711-.703 3.141-3.156 3.42-3.604l.113-.185zM10.426 21.129c-.967-.259-4.322-1.123-4.85-1.14l-.221-.003c0 .081-.008.165-.023.244a.983.983 0 0 1-.115.31l.228.095c.247.093.277.221.549.262l4.368.555c.273.031.488.101.521-.061.034-.15-.187-.193-.457-.262M5.127 33.401h-.015l-.36-12.432H4l-.359 12.432h-.016a.5.5 0 0 0-.502.496v.497h2.506v-.497a.501.501 0 0 0-.502-.496"/></g></svg>