<svg id="Layer_1" xmlns="http://www.w3.org/2000/svg" width="22.294" height="23.002" viewBox="0 0 26.294 27.002"><g><path fill="#1C75BC" d="M7.278 21.57c.678.072 1.232-.209 1.887-.316-.002 0-.004 0-.008-.004.418-.034.844.069 1.256.004.219-.038.227-.084.004-.125-.211-.035-.402-.119-.604-.188-.723-.254-1.354.013-2.086.055-.422-.009-.816-.096-1.227-.108-.037.171-.07.346-.104.516.298.027.569.105.882.166M24.161 21.254h-.006c.416-.038.844.065 1.254 0 .219-.038.225-.084.002-.125-.211-.035-.4-.119-.602-.188-.725-.254-1.357.013-2.088.055h-.033l-.115.584c.549-.018 1.031-.237 1.588-.326M19.385 21.166c-.539-.049-1.051-.154-1.607.05a2.843 2.843 0 0 1-.865.186c-.441.017-.865-.115-1.309-.096.008.11.229.07.332.085.229.032.447.122.678.162.506.087.941-.029 1.432-.13.455-.094.887.046 1.328.125.002-.035.002-.07.002-.108.003-.087.007-.181.009-.274"/><path fill="#808285" d="M12.516 9.254v7.633H7.655c.395-.246.787-.494 1.18-.743.191-.121.387-.244.584-.366.08-.05.197-.099.26-.179.109-.13.049-.467-.146-.467a.177.177 0 0 0-.057.009c-.029.009-.061.017-.092.029-.182.053-.361.107-.543.163l-1.646.506c-.207.061-.416.125-.621.188-.105.033-.219.057-.307.123a.628.628 0 0 0-.225.338c-.209-.301-.543-.503-.885-.503a.857.857 0 0 0-.51.168.87.87 0 0 0-.311-.6c-.117-.099-.234-.194-.35-.297-.418-.351-.838-.702-1.256-1.057-.398-.338-.795-.671-1.193-1.006-.09-.077-.18-.154-.272-.229a.266.266 0 0 0-.172-.07.207.207 0 0 0-.137.052.314.314 0 0 0-.078.292c.029.136.143.234.226.339.521.632 1.039 1.265 1.558 1.896.229.283.461.563.691.847.191.231.402.596.738.596.021 0 .043 0 .066-.004-.143.586.035 1.303.537 1.669-.164.137-.238.346-.254.552-.012.219-.02.434-.031.652-.025.566-.045 1.132-.064 1.7-.021.543-.039 1.091-.057 1.635l-.014.47c-.002.115.053.253.17.291.02.006.037.008.057.008a.229.229 0 0 0 .189-.116c.037-.064.045-.137.061-.206.025-.119.049-.235.072-.354.061-.289.117-.579.178-.866.135-.657.443-2.178.566-2.861.045-.248.049-.496-.092-.726.318-.07.545-.293.686-.573h6.353v7.522H.388v1.296h25.554v-1.296H13.813v-7.522h6.74c.092.154.207.29.354.396-.166.137-.24.346-.254.552a72.97 72.97 0 0 0-.033.652l-.064 1.7c-.02.543-.037 1.091-.057 1.635l-.014.47c-.002.115.053.253.172.291a.179.179 0 0 0 .057.008c.076 0 .146-.049.189-.116.035-.064.047-.137.061-.206.025-.119.049-.235.072-.354l.178-.866c.133-.657.443-2.178.566-2.861.045-.248.047-.496-.094-.726.594-.134.879-.803.863-1.354.082.05.158.072.236.072a.62.62 0 0 0 .326-.113l.473-.296c.486-.309.973-.614 1.459-.922.195-.121.389-.244.584-.366.08-.05.197-.099.26-.179.109-.13.049-.467-.145-.467a.17.17 0 0 0-.057.009c-.031.009-.063.017-.094.029-.178.053-.361.107-.541.163l-1.648.506c-.205.061-.414.125-.621.188-.105.033-.217.057-.307.123a.625.625 0 0 0-.223.338c-.211-.301-.545-.503-.887-.503a.856.856 0 0 0-.508.168.873.873 0 0 0-.313-.6c-.115-.099-.234-.194-.35-.297-.418-.351-.838-.702-1.256-1.057-.396-.338-.795-.671-1.191-1.006-.092-.077-.182-.154-.273-.229a.262.262 0 0 0-.172-.07.192.192 0 0 0-.133.052.306.306 0 0 0-.082.292c.031.136.145.234.227.339.52.632 1.037 1.265 1.557 1.896.23.283.461.563.691.847.164.197.338.484.59.568H13.812V9.014c-.181.031-.362.066-.552.104-.244.049-.49.096-.744.136M13.813 5.52V3.805h1.791V0h-4.877v3.805h1.789V5.84c.055-.018.113-.032.17-.051.361-.095.734-.197 1.127-.269"/><path fill="#1C75BC" d="M10.413 11.315c.219-.034.225-.085.004-.126-.213-.033-.402-.117-.604-.188-.723-.252-1.355.015-2.088.057-.58-.013-1.107-.172-1.697-.088-.389.064-.762.264-1.146.279-.734.021-1.379-.233-2.098.029a2.81 2.81 0 0 1-.865.186c-.443.021-.866-.117-1.311-.097.009.111.229.071.333.086.23.031.447.122.675.162.508.09.943-.03 1.434-.131.613-.128 1.184.174 1.799.178.434 0 .816-.167 1.242-.2.426-.021.773.089 1.186.168.68.075 1.234-.206 1.889-.314H9.16c.415-.038.842.066 1.253-.001M25.409 11.315c.219-.034.225-.085.002-.126-.211-.033-.4-.117-.602-.188-.725-.252-1.357.015-2.088.057-.58-.013-1.107-.172-1.697-.088-.391.064-.762.264-1.148.279-.732.021-1.377-.233-2.098.029a2.785 2.785 0 0 1-.863.186c-.445.021-.867-.117-1.311-.097.008.111.229.071.332.086.23.031.445.122.676.162.508.09.943-.03 1.434-.131.613-.128 1.184.174 1.799.178.434 0 .816-.167 1.242-.2.426-.021.771.089 1.186.168.68.075 1.232-.206 1.889-.314h-.008c.417-.038.845.066 1.255-.001M22.555 6.821l-.006.256-.023-.252c.01 0 .019-.004.029-.004M.877 7.722c.61.076 1.18.28 1.784.371.33.048.65.068.963.068.951 0 1.844-.191 2.813-.366.282-.048.563-.069.839-.069 1.309 0 2.568.465 3.906.468h.018c1.135 0 2.143-.369 3.256-.45.092-.007.184-.007.271-.007 1.004 0 1.859.228 2.859.391.203.02.4.028.594.028 1.531 0 2.85-.525 4.381-.741h-.006l-.01-.002c.172-.015.346-.018.521-.018.648 0 1.303.072 1.947.072.283 0 .564-.015.84-.053.578-.084.594-.19.01-.281-.557-.082-1.061-.27-1.59-.431a5.918 5.918 0 0 0-1.734-.243c-1.244 0-2.447.308-3.773.372h-.016.024c-1.219-.021-2.342-.254-3.531-.254-.311 0-.627.016-.947.057-1.029.145-2.012.598-3.027.627l-.229.002c-1.176 0-2.271-.205-3.385-.205-.627 0-1.26.063-1.918.271-.75.235-1.496.394-2.283.421-.076.002-.15.006-.227.006-1 0-1.965-.227-2.969-.227A4.441 4.441 0 0 0 0 7.534c.018.177.326.18.599.18h.015c.098 0 .191 0 .263.008"/></g></svg>