<svg id="Layer_1" xmlns="http://www.w3.org/2000/svg" width="13.774" height="17.957" viewBox="0 0 23.774 27.957"><g><polygon fill="#FFF" points="0.584,10.037 11.438,10.254 11.438,2.058 22.176,1.303 23.079,27.612 0.834,27.482"/><path fill="#808285" d="M8.266 26.551v-2.5h2.756v2.5H8.266zM7.45 13.122H4.692v-2.5H7.45v2.5zm0 3.355H4.692v-2.498H7.45v2.498zm0 3.356H4.692v-2.498H7.45v2.498zm0 3.359H4.692v-2.496H7.45v2.496zm0 3.359H4.692v-2.5H7.45v2.5zM3.874 13.122H1.12v-2.5h2.754v2.5zm0 3.355H1.12v-2.498h2.754v2.498zm0 3.356H1.12v-2.498h2.754v2.498zm0 3.359H1.12v-2.496h2.754v2.496zm0 3.359H1.12v-2.5h2.754v2.5zm4.392-5.857h2.756v2.498H8.266v-2.498zm0-3.354h2.756v2.493H8.266V17.34zm0-3.361h2.756v2.498H8.266v-2.498zm0-3.357h2.756v2.5H8.266v-2.5zm8.141-2.3h5.77v1.25H16.407v-1.25zm0-2.003h5.77v1.247h-5.77V6.319zm0-2.003h5.77v1.248h-5.77V4.316zm0-2.005h5.77v1.248h-5.77V2.311zm5.769 9.266H16.406v-1.246H22.176v1.246zm0 2.006H16.406v-1.25H22.176v1.25zm0 2.006H16.406v-1.25H22.176v1.25zm0 2.004H16.406v-1.248H22.176v1.248zm0 2.005H16.406v-1.251H22.176v1.251zm0 2.003H16.406v-1.248H22.176v1.248zm-1.625 5.464h-2.52v-3.634h2.52v3.634zm-5.953-13.943h-2.756v-2.5h2.756v2.5zm0 3.355h-2.756v-2.498h2.756v2.498zm0 3.356h-2.756v-2.498h2.756v2.498zm0 3.359h-2.756v-2.496h2.756v2.496zm0 3.359h-2.756v-2.5h2.756v2.5zm2.145 1.406h7.031V0l-12.99 1.143V9.46H0v18.497H16.743z"/></g></svg>